G75*
%MOIN*%
%OFA0B0*%
%FSLAX25Y25*%
%IPPOS*%
%LPD*%
%AMOC8*
5,1,8,0,0,1.08239X$1,22.5*
%
%ADD10OC8,0.08400*%
%ADD11C,0.05600*%
%ADD12OC8,0.07400*%
%ADD13OC8,0.07800*%
%ADD14C,0.13398*%
%ADD15C,0.08400*%
%ADD16R,0.07800X0.07800*%
%ADD17R,0.06400X0.06400*%
%ADD18C,0.07400*%
%ADD19R,0.05918X0.06706*%
%ADD20OC8,0.07100*%
%ADD21C,0.07100*%
%ADD22OC8,0.10800*%
%ADD23R,0.06693X0.11811*%
%ADD24R,0.12500X0.12500*%
%ADD25C,0.05800*%
%ADD26C,0.07400*%
%ADD27C,0.09658*%
D10*
X0051050Y0019950D03*
X0067450Y0019950D03*
X0067450Y0045550D03*
X0051050Y0045550D03*
X0051050Y0073700D03*
X0067450Y0073700D03*
X0067450Y0099300D03*
X0051050Y0099300D03*
D11*
X0073000Y0139100D02*
X0073000Y0143900D01*
X0083000Y0143900D02*
X0083000Y0139100D01*
X0093000Y0139100D02*
X0093000Y0143900D01*
X0103000Y0143900D02*
X0103000Y0139100D01*
X0113000Y0139100D02*
X0113000Y0143900D01*
X0123000Y0143900D02*
X0123000Y0139100D01*
X0133000Y0139100D02*
X0133000Y0143900D01*
X0133000Y0169100D02*
X0133000Y0173900D01*
X0123000Y0173900D02*
X0123000Y0169100D01*
X0113000Y0169100D02*
X0113000Y0173900D01*
X0103000Y0173900D02*
X0103000Y0169100D01*
X0093000Y0169100D02*
X0093000Y0173900D01*
X0083000Y0173900D02*
X0083000Y0169100D01*
X0073000Y0169100D02*
X0073000Y0173900D01*
D12*
X0073000Y0186500D03*
X0083000Y0186500D03*
X0063000Y0186500D03*
X0123000Y0186500D03*
X0143000Y0174000D03*
X0143000Y0162750D03*
X0143000Y0151500D03*
X0143000Y0140250D03*
X0183000Y0140250D03*
X0183000Y0151500D03*
X0183000Y0162750D03*
X0183000Y0174000D03*
X0201750Y0175250D03*
X0211750Y0175250D03*
X0236750Y0140250D03*
X0246750Y0140250D03*
X0173000Y0104000D03*
X0158000Y0092750D03*
X0148000Y0092750D03*
X0133000Y0092750D03*
X0123000Y0092750D03*
X0123000Y0104000D03*
X0133000Y0104000D03*
X0108000Y0092750D03*
X0098000Y0092750D03*
X0083000Y0104000D03*
X0068000Y0059000D03*
X0083000Y0050250D03*
X0098000Y0039000D03*
X0108000Y0039000D03*
X0123000Y0039000D03*
X0133000Y0039000D03*
X0148000Y0039000D03*
X0158000Y0039000D03*
X0173000Y0050250D03*
X0190500Y0032750D03*
X0200500Y0032750D03*
X0133000Y0050250D03*
X0123000Y0050250D03*
X0190500Y0086500D03*
X0200500Y0086500D03*
X0028000Y0059000D03*
D13*
X0059250Y0146500D03*
X0059250Y0166500D03*
X0194250Y0161500D03*
X0194250Y0141500D03*
D14*
X0224250Y0137750D03*
X0224250Y0177750D03*
D15*
X0085500Y0081500D03*
X0085500Y0027750D03*
D16*
X0125500Y0027750D03*
X0125500Y0081500D03*
D17*
X0164250Y0081500D03*
X0164250Y0027750D03*
D18*
X0134250Y0027750D03*
X0134250Y0081500D03*
D19*
X0188010Y0222750D03*
X0195490Y0222750D03*
D20*
X0045500Y0179000D03*
D21*
X0045500Y0189000D03*
D22*
X0108750Y0222250D03*
X0160750Y0222250D03*
D23*
X0214998Y0222750D03*
X0233502Y0222750D03*
D24*
X0224250Y0222750D03*
D25*
X0026750Y0165650D02*
X0021750Y0165650D01*
X0021750Y0149850D02*
X0026750Y0149850D01*
D26*
X0027550Y0157750D02*
X0020950Y0157750D01*
D27*
X0019821Y0173900D02*
X0028679Y0173900D01*
X0028679Y0141600D02*
X0019821Y0141600D01*
M02*
