%
M48
M72
T01C0.0236
T02C0.0315
T03C0.0320
T04C0.0394
T05C0.0433
T06C0.0440
T07C0.0591
T08C0.1260
%
T01
X925Y900
X17675Y6400
X18175Y5650
X20050Y4900
X20925Y5650
X20050Y6525
X17675Y7650
X24800Y10900
X24800Y12275
X24800Y19275
X26175Y19275
X38300Y19275
X38300Y20650
X38300Y23150
X925Y23150
X925Y20650
X925Y19275
X925Y12275
X925Y10900
X24800Y900
X26175Y900
X38300Y900
T02
X24675Y14025
X23675Y14025
X21175Y17525
X20175Y17525
X2425Y16565
X2425Y15775
X2425Y14985
T03
X5925Y14650
X7300Y14150
X8300Y14150
X9300Y14150
X10300Y14150
X11300Y14150
X12300Y14150
X13300Y14150
X14300Y14025
X14300Y15150
X14300Y16275
X13300Y17150
X12300Y17150
X11300Y17150
X10300Y17150
X9300Y17150
X8300Y17150
X7300Y17150
X5925Y16650
X4550Y17900
X6300Y18650
X7300Y18650
X8300Y18650
X4550Y18900
X12300Y18650
X14300Y17400
X18300Y17400
X18300Y16275
X19425Y16150
X18300Y15150
X18300Y14025
X19425Y14150
X17300Y10400
X15800Y9275
X14800Y9275
X13300Y9275
X12300Y9275
X12300Y10400
X13300Y10400
X10800Y9275
X9800Y9275
X8300Y10400
X13425Y8150
X16425Y8150
X19050Y8650
X20050Y8650
X17300Y5025
X15800Y3900
X14800Y3900
X13300Y3900
X12300Y3900
X12300Y5025
X13300Y5025
X10800Y3900
X9800Y3900
X8300Y5025
X6800Y5900
X2800Y5900
X13425Y2775
X16425Y2775
X19050Y3275
X20050Y3275
T04
X6745Y1995
X5105Y1995
X5105Y4555
X6745Y4555
X6745Y7370
X5105Y7370
X5105Y9930
X6745Y9930
T05
X10875Y22225
X16075Y22225
T06
X12550Y8150
X8550Y8150
X8550Y2775
X12550Y2775
T07
X2425Y14160
X2425Y17390
T08
X22425Y17775
X22425Y13775
M30
