G75*
%MOIN*%
%OFA0B0*%
%FSLAX25Y25*%
%IPPOS*%
%LPD*%
%AMOC8*
5,1,8,0,0,1.08239X$1,22.5*
%
%ADD10OC8,0.08400*%
%ADD11C,0.05600*%
%ADD12OC8,0.07400*%
%ADD13OC8,0.07800*%
%ADD14C,0.13398*%
%ADD15C,0.08400*%
%ADD16R,0.07800X0.07800*%
%ADD17R,0.06400X0.06400*%
%ADD18C,0.07400*%
%ADD19OC8,0.07100*%
%ADD20C,0.07100*%
%ADD21OC8,0.10800*%
%ADD22C,0.00500*%
%ADD23C,0.05800*%
%ADD24C,0.07400*%
%ADD25C,0.09658*%
D10*
X0051050Y0019950D03*
X0067450Y0019950D03*
X0067450Y0045550D03*
X0051050Y0045550D03*
X0051050Y0073700D03*
X0067450Y0073700D03*
X0067450Y0099300D03*
X0051050Y0099300D03*
D11*
X0073000Y0139100D02*
X0073000Y0143900D01*
X0083000Y0143900D02*
X0083000Y0139100D01*
X0093000Y0139100D02*
X0093000Y0143900D01*
X0103000Y0143900D02*
X0103000Y0139100D01*
X0113000Y0139100D02*
X0113000Y0143900D01*
X0123000Y0143900D02*
X0123000Y0139100D01*
X0133000Y0139100D02*
X0133000Y0143900D01*
X0133000Y0169100D02*
X0133000Y0173900D01*
X0123000Y0173900D02*
X0123000Y0169100D01*
X0113000Y0169100D02*
X0113000Y0173900D01*
X0103000Y0173900D02*
X0103000Y0169100D01*
X0093000Y0169100D02*
X0093000Y0173900D01*
X0083000Y0173900D02*
X0083000Y0169100D01*
X0073000Y0169100D02*
X0073000Y0173900D01*
D12*
X0073000Y0186500D03*
X0083000Y0186500D03*
X0063000Y0186500D03*
X0123000Y0186500D03*
X0143000Y0174000D03*
X0143000Y0162750D03*
X0143000Y0151500D03*
X0143000Y0140250D03*
X0183000Y0140250D03*
X0183000Y0151500D03*
X0183000Y0162750D03*
X0183000Y0174000D03*
X0201750Y0175250D03*
X0211750Y0175250D03*
X0236750Y0140250D03*
X0246750Y0140250D03*
X0173000Y0104000D03*
X0158000Y0092750D03*
X0148000Y0092750D03*
X0133000Y0092750D03*
X0123000Y0092750D03*
X0123000Y0104000D03*
X0133000Y0104000D03*
X0108000Y0092750D03*
X0098000Y0092750D03*
X0083000Y0104000D03*
X0068000Y0059000D03*
X0083000Y0050250D03*
X0098000Y0039000D03*
X0108000Y0039000D03*
X0123000Y0039000D03*
X0133000Y0039000D03*
X0148000Y0039000D03*
X0158000Y0039000D03*
X0173000Y0050250D03*
X0190500Y0032750D03*
X0200500Y0032750D03*
X0133000Y0050250D03*
X0123000Y0050250D03*
X0190500Y0086500D03*
X0200500Y0086500D03*
X0028000Y0059000D03*
D13*
X0059250Y0146500D03*
X0059250Y0166500D03*
X0194250Y0161500D03*
X0194250Y0141500D03*
D14*
X0224250Y0137750D03*
X0224250Y0177750D03*
D15*
X0085500Y0081500D03*
X0085500Y0027750D03*
D16*
X0125500Y0027750D03*
X0125500Y0081500D03*
D17*
X0164250Y0081500D03*
X0164250Y0027750D03*
D18*
X0134250Y0027750D03*
X0134250Y0081500D03*
D19*
X0045500Y0179000D03*
D20*
X0045500Y0189000D03*
D21*
X0108750Y0222250D03*
X0160750Y0222250D03*
D22*
X0211500Y0215475D02*
X0211550Y0215675D01*
X0211650Y0215825D01*
X0211700Y0215875D01*
X0211750Y0215950D01*
X0211800Y0216000D01*
X0211850Y0216075D01*
X0211925Y0216125D01*
X0212075Y0216275D01*
X0212150Y0216325D01*
X0212225Y0216400D01*
X0212375Y0216500D01*
X0212450Y0216575D01*
X0212525Y0216625D01*
X0212600Y0216700D01*
X0212750Y0216800D01*
X0212850Y0216875D01*
X0213000Y0216975D01*
X0213075Y0217050D01*
X0213225Y0217150D01*
X0213300Y0217225D01*
X0213375Y0217275D01*
X0213475Y0217350D01*
X0213625Y0217450D01*
X0213700Y0217525D01*
X0213775Y0217575D01*
X0213850Y0217650D01*
X0213925Y0217700D01*
X0214025Y0217750D01*
X0214100Y0217825D01*
X0214175Y0217875D01*
X0214250Y0217950D01*
X0214325Y0218000D01*
X0214400Y0218075D01*
X0214550Y0218175D01*
X0214650Y0218250D01*
X0214725Y0218300D01*
X0214800Y0218375D01*
X0214875Y0218425D01*
X0214950Y0218500D01*
X0215100Y0218600D01*
X0215175Y0218675D01*
X0215275Y0218725D01*
X0215350Y0218800D01*
X0215425Y0218850D01*
X0215500Y0218925D01*
X0215575Y0218975D01*
X0215650Y0219050D01*
X0215725Y0219100D01*
X0215800Y0219175D01*
X0215900Y0219225D01*
X0215975Y0219300D01*
X0216050Y0219350D01*
X0216125Y0219425D01*
X0216275Y0219525D01*
X0216350Y0219600D01*
X0216425Y0219650D01*
X0216500Y0219725D01*
X0216575Y0219775D01*
X0216650Y0219850D01*
X0216750Y0219900D01*
X0216825Y0219975D01*
X0216900Y0220025D01*
X0216975Y0220100D01*
X0217050Y0220150D01*
X0217125Y0220225D01*
X0217200Y0220275D01*
X0217275Y0220350D01*
X0217350Y0220400D01*
X0217425Y0220475D01*
X0217500Y0220525D01*
X0217575Y0220600D01*
X0217650Y0220650D01*
X0217725Y0220725D01*
X0217825Y0220775D01*
X0217900Y0220850D01*
X0217975Y0220900D01*
X0218050Y0220975D01*
X0218125Y0221025D01*
X0218200Y0221100D01*
X0218275Y0221150D01*
X0218425Y0221300D01*
X0218500Y0221350D01*
X0218575Y0221425D01*
X0218650Y0221475D01*
X0218725Y0221550D01*
X0218800Y0221600D01*
X0218875Y0221675D01*
X0218950Y0221725D01*
X0219025Y0221800D01*
X0219100Y0221850D01*
X0219175Y0221925D01*
X0219225Y0221950D01*
X0219275Y0222000D01*
X0218250Y0222000D01*
X0218200Y0222025D01*
X0218125Y0222075D01*
X0218075Y0222125D01*
X0218025Y0222200D01*
X0218000Y0222275D01*
X0218000Y0223925D01*
X0218025Y0224025D01*
X0218050Y0224100D01*
X0218100Y0224175D01*
X0218125Y0224275D01*
X0218225Y0224425D01*
X0218300Y0224475D01*
X0218350Y0224550D01*
X0218425Y0224625D01*
X0218500Y0224675D01*
X0218575Y0224750D01*
X0218725Y0224850D01*
X0218800Y0224925D01*
X0218875Y0224950D01*
X0218975Y0225000D01*
X0219050Y0225050D01*
X0219150Y0225075D01*
X0219250Y0225125D01*
X0219325Y0225150D01*
X0219525Y0225200D01*
X0219600Y0225225D01*
X0219700Y0225250D01*
X0219800Y0225250D01*
X0219900Y0225275D01*
X0223050Y0225275D01*
X0223100Y0225350D01*
X0223175Y0225400D01*
X0223425Y0225650D01*
X0223500Y0225700D01*
X0223575Y0225775D01*
X0223625Y0225850D01*
X0223700Y0225925D01*
X0223775Y0225975D01*
X0224000Y0226200D01*
X0224075Y0226250D01*
X0224150Y0226325D01*
X0224200Y0226400D01*
X0224350Y0226550D01*
X0224425Y0226600D01*
X0224575Y0226750D01*
X0224625Y0226825D01*
X0224700Y0226875D01*
X0224925Y0227100D01*
X0225000Y0227150D01*
X0225050Y0227225D01*
X0225275Y0227450D01*
X0225350Y0227500D01*
X0225425Y0227575D01*
X0225475Y0227650D01*
X0225625Y0227800D01*
X0225700Y0227850D01*
X0225750Y0227925D01*
X0225825Y0228000D01*
X0225900Y0228050D01*
X0225825Y0228050D01*
X0225725Y0228075D01*
X0225350Y0228075D01*
X0225250Y0228100D01*
X0224850Y0228100D01*
X0224750Y0228125D01*
X0224475Y0228125D01*
X0224375Y0228150D01*
X0224175Y0228150D01*
X0224075Y0228175D01*
X0223800Y0228175D01*
X0223700Y0228200D01*
X0223325Y0228200D01*
X0223225Y0228225D01*
X0222925Y0228225D01*
X0222825Y0228250D01*
X0222550Y0228250D01*
X0222450Y0228275D01*
X0222075Y0228275D01*
X0221975Y0228300D01*
X0221600Y0228300D01*
X0221500Y0228325D01*
X0221300Y0228325D01*
X0221225Y0228300D01*
X0221125Y0228300D01*
X0220925Y0228250D01*
X0220850Y0228225D01*
X0220750Y0228200D01*
X0220675Y0228150D01*
X0220600Y0228075D01*
X0220525Y0228025D01*
X0220475Y0227950D01*
X0220425Y0227850D01*
X0220350Y0227625D01*
X0220300Y0227550D01*
X0220275Y0227450D01*
X0220250Y0227375D01*
X0220225Y0227275D01*
X0219975Y0226900D01*
X0219600Y0226525D01*
X0219375Y0226375D01*
X0219325Y0226325D01*
X0219175Y0226225D01*
X0219075Y0226175D01*
X0218925Y0226075D01*
X0218825Y0226025D01*
X0218675Y0225925D01*
X0218575Y0225875D01*
X0218500Y0225850D01*
X0218400Y0225800D01*
X0218325Y0225750D01*
X0218225Y0225725D01*
X0218150Y0225675D01*
X0218050Y0225650D01*
X0217975Y0225600D01*
X0217775Y0225550D01*
X0217700Y0225525D01*
X0217300Y0225425D01*
X0215525Y0225425D01*
X0215450Y0225475D01*
X0215375Y0225500D01*
X0215275Y0225650D01*
X0215275Y0227375D01*
X0215350Y0227675D01*
X0215375Y0227750D01*
X0215425Y0227850D01*
X0215450Y0227950D01*
X0215550Y0228100D01*
X0215600Y0228200D01*
X0215700Y0228350D01*
X0215750Y0228450D01*
X0215825Y0228525D01*
X0215925Y0228675D01*
X0216000Y0228750D01*
X0216050Y0228825D01*
X0216125Y0228900D01*
X0216175Y0228975D01*
X0216250Y0229050D01*
X0216300Y0229125D01*
X0216725Y0229550D01*
X0216800Y0229600D01*
X0217000Y0229800D01*
X0217075Y0229850D01*
X0217150Y0229925D01*
X0217225Y0229975D01*
X0217325Y0230050D01*
X0217400Y0230100D01*
X0217475Y0230175D01*
X0217625Y0230275D01*
X0217700Y0230350D01*
X0217800Y0230400D01*
X0218025Y0230550D01*
X0218125Y0230625D01*
X0218275Y0230725D01*
X0218375Y0230775D01*
X0218450Y0230825D01*
X0218550Y0230875D01*
X0218625Y0230925D01*
X0218700Y0230950D01*
X0218800Y0231000D01*
X0218875Y0231050D01*
X0218975Y0231100D01*
X0219050Y0231150D01*
X0219150Y0231175D01*
X0219225Y0231225D01*
X0219325Y0231275D01*
X0219425Y0231300D01*
X0219500Y0231350D01*
X0219600Y0231375D01*
X0219675Y0231425D01*
X0219775Y0231450D01*
X0219875Y0231500D01*
X0219950Y0231525D01*
X0220050Y0231550D01*
X0220150Y0231600D01*
X0220250Y0231625D01*
X0220325Y0231650D01*
X0220425Y0231700D01*
X0220525Y0231725D01*
X0220600Y0231750D01*
X0221000Y0231850D01*
X0221075Y0231875D01*
X0221375Y0231950D01*
X0221475Y0231950D01*
X0221575Y0231975D01*
X0221650Y0232000D01*
X0221750Y0232025D01*
X0221850Y0232025D01*
X0221950Y0232050D01*
X0222050Y0232050D01*
X0222150Y0232075D01*
X0222225Y0232075D01*
X0222325Y0232100D01*
X0222525Y0232100D01*
X0222625Y0232125D01*
X0222825Y0232125D01*
X0222900Y0232150D01*
X0225550Y0232150D01*
X0225650Y0232125D01*
X0226025Y0232125D01*
X0226125Y0232100D01*
X0226425Y0232100D01*
X0226525Y0232075D01*
X0226825Y0232075D01*
X0226900Y0232050D01*
X0227200Y0232050D01*
X0227300Y0232025D01*
X0227600Y0232025D01*
X0227700Y0232000D01*
X0227975Y0232000D01*
X0228075Y0231975D01*
X0228375Y0231975D01*
X0228475Y0231950D01*
X0228775Y0231950D01*
X0228875Y0231925D01*
X0229250Y0231925D01*
X0229350Y0231900D01*
X0229750Y0231900D01*
X0229825Y0231875D01*
X0229925Y0231875D01*
X0230000Y0231900D01*
X0230100Y0231900D01*
X0230400Y0231975D01*
X0230475Y0232000D01*
X0230575Y0232050D01*
X0230650Y0232075D01*
X0230750Y0232075D01*
X0230900Y0232125D01*
X0231000Y0232125D01*
X0231100Y0232150D01*
X0232750Y0232150D01*
X0232900Y0232100D01*
X0232975Y0232050D01*
X0233025Y0232000D01*
X0233075Y0231925D01*
X0233075Y0230275D01*
X0233050Y0230225D01*
X0233000Y0230150D01*
X0232975Y0230050D01*
X0232900Y0229975D01*
X0232750Y0229750D01*
X0232675Y0229675D01*
X0232625Y0229600D01*
X0232550Y0229525D01*
X0232500Y0229450D01*
X0232350Y0229300D01*
X0232300Y0229225D01*
X0232225Y0229175D01*
X0232150Y0229100D01*
X0232100Y0229025D01*
X0231950Y0228875D01*
X0231900Y0228800D01*
X0231675Y0228575D01*
X0231625Y0228500D01*
X0231550Y0228425D01*
X0231475Y0228375D01*
X0231425Y0228300D01*
X0231200Y0228075D01*
X0231150Y0228000D01*
X0231000Y0227850D01*
X0230925Y0227800D01*
X0230875Y0227725D01*
X0230650Y0227500D01*
X0230600Y0227425D01*
X0230525Y0227375D01*
X0230375Y0227225D01*
X0230325Y0227150D01*
X0230175Y0227000D01*
X0230100Y0226950D01*
X0230050Y0226875D01*
X0229825Y0226650D01*
X0229750Y0226600D01*
X0229700Y0226525D01*
X0229475Y0226300D01*
X0229400Y0226250D01*
X0229350Y0226175D01*
X0229200Y0226025D01*
X0229125Y0225975D01*
X0228975Y0225825D01*
X0228925Y0225750D01*
X0228850Y0225700D01*
X0228625Y0225475D01*
X0228550Y0225425D01*
X0228500Y0225350D01*
X0228425Y0225275D01*
X0228350Y0225225D01*
X0228300Y0225175D01*
X0228400Y0225125D01*
X0228500Y0225100D01*
X0228575Y0225075D01*
X0228675Y0225025D01*
X0228825Y0224925D01*
X0228900Y0224850D01*
X0228950Y0224775D01*
X0228975Y0224675D01*
X0228975Y0222950D01*
X0228925Y0222875D01*
X0228900Y0222800D01*
X0228850Y0222700D01*
X0228800Y0222625D01*
X0228675Y0222500D01*
X0228625Y0222425D01*
X0228550Y0222375D01*
X0228475Y0222300D01*
X0228400Y0222250D01*
X0228325Y0222175D01*
X0228100Y0222025D01*
X0228000Y0221975D01*
X0227925Y0221925D01*
X0227825Y0221900D01*
X0227750Y0221850D01*
X0227650Y0221825D01*
X0227575Y0221775D01*
X0227475Y0221750D01*
X0227400Y0221725D01*
X0227300Y0221700D01*
X0227200Y0221700D01*
X0227100Y0221675D01*
X0225450Y0221675D01*
X0225350Y0221700D01*
X0225275Y0221725D01*
X0225175Y0221775D01*
X0225075Y0221875D01*
X0225000Y0221900D01*
X0224900Y0221900D01*
X0224825Y0221925D01*
X0224725Y0221925D01*
X0224650Y0221875D01*
X0224550Y0221775D01*
X0224475Y0221725D01*
X0224400Y0221650D01*
X0224325Y0221600D01*
X0224250Y0221525D01*
X0224175Y0221475D01*
X0224100Y0221400D01*
X0224025Y0221350D01*
X0223875Y0221200D01*
X0223800Y0221150D01*
X0223725Y0221075D01*
X0223650Y0221025D01*
X0223575Y0220950D01*
X0223500Y0220900D01*
X0223425Y0220825D01*
X0223350Y0220775D01*
X0223200Y0220625D01*
X0223125Y0220575D01*
X0223050Y0220500D01*
X0222975Y0220450D01*
X0222900Y0220375D01*
X0222825Y0220325D01*
X0222750Y0220250D01*
X0222675Y0220200D01*
X0222600Y0220125D01*
X0222525Y0220075D01*
X0222450Y0220000D01*
X0222375Y0219950D01*
X0222300Y0219875D01*
X0222225Y0219825D01*
X0222150Y0219750D01*
X0222075Y0219700D01*
X0222000Y0219625D01*
X0221925Y0219575D01*
X0221850Y0219500D01*
X0221700Y0219400D01*
X0221625Y0219325D01*
X0221550Y0219275D01*
X0221475Y0219200D01*
X0221400Y0219150D01*
X0221325Y0219075D01*
X0221250Y0219025D01*
X0221175Y0218950D01*
X0221100Y0218900D01*
X0221025Y0218825D01*
X0220950Y0218775D01*
X0220875Y0218700D01*
X0220800Y0218650D01*
X0220725Y0218575D01*
X0220650Y0218525D01*
X0220575Y0218450D01*
X0220500Y0218400D01*
X0220425Y0218325D01*
X0220275Y0218225D01*
X0220200Y0218150D01*
X0220125Y0218100D01*
X0220050Y0218025D01*
X0219900Y0217925D01*
X0219850Y0217875D01*
X0219775Y0217825D01*
X0219725Y0217775D01*
X0219675Y0217750D01*
X0219775Y0217750D01*
X0219875Y0217725D01*
X0220650Y0217725D01*
X0220750Y0217700D01*
X0221125Y0217700D01*
X0221225Y0217675D01*
X0221625Y0217675D01*
X0221725Y0217650D01*
X0222225Y0217650D01*
X0222325Y0217625D01*
X0222825Y0217625D01*
X0222925Y0217600D01*
X0223500Y0217600D01*
X0223600Y0217575D01*
X0224075Y0217575D01*
X0224175Y0217550D01*
X0224675Y0217550D01*
X0224775Y0217525D01*
X0225350Y0217525D01*
X0225450Y0217500D01*
X0226000Y0217500D01*
X0226100Y0217475D01*
X0226200Y0217475D01*
X0226200Y0217500D01*
X0226275Y0217575D01*
X0226375Y0217725D01*
X0226425Y0217825D01*
X0226450Y0217900D01*
X0226500Y0217975D01*
X0226550Y0218075D01*
X0226600Y0218150D01*
X0226650Y0218250D01*
X0226675Y0218325D01*
X0226725Y0218425D01*
X0226750Y0218500D01*
X0226800Y0218600D01*
X0226825Y0218700D01*
X0226875Y0218775D01*
X0226925Y0218975D01*
X0226950Y0219050D01*
X0227000Y0219150D01*
X0227025Y0219250D01*
X0227075Y0219325D01*
X0227100Y0219425D01*
X0227150Y0219500D01*
X0227225Y0219575D01*
X0227325Y0219725D01*
X0227400Y0219775D01*
X0227600Y0219975D01*
X0227825Y0220125D01*
X0227900Y0220200D01*
X0228200Y0220400D01*
X0228300Y0220450D01*
X0228450Y0220550D01*
X0228550Y0220600D01*
X0228625Y0220625D01*
X0228700Y0220675D01*
X0228800Y0220725D01*
X0228875Y0220775D01*
X0228975Y0220800D01*
X0229075Y0220850D01*
X0229150Y0220875D01*
X0229250Y0220925D01*
X0229350Y0220950D01*
X0229425Y0220975D01*
X0229825Y0221075D01*
X0230000Y0221075D01*
X0230100Y0221100D01*
X0231675Y0221100D01*
X0231725Y0221075D01*
X0231800Y0221050D01*
X0231875Y0221000D01*
X0231900Y0220975D01*
X0232000Y0221000D01*
X0232075Y0221025D01*
X0232175Y0221050D01*
X0232250Y0221075D01*
X0232350Y0221100D01*
X0232425Y0221125D01*
X0232525Y0221125D01*
X0232600Y0221150D01*
X0232700Y0221175D01*
X0232875Y0221175D01*
X0232975Y0221200D01*
X0233150Y0221200D01*
X0233250Y0221225D01*
X0233875Y0221225D01*
X0235375Y0221225D01*
X0235475Y0221200D01*
X0235675Y0221200D01*
X0235875Y0221150D01*
X0235975Y0221150D01*
X0236075Y0221125D01*
X0236150Y0221100D01*
X0236750Y0220950D01*
X0236825Y0220925D01*
X0236925Y0220875D01*
X0237025Y0220850D01*
X0237100Y0220800D01*
X0237200Y0220750D01*
X0237300Y0220725D01*
X0237375Y0220675D01*
X0237475Y0220625D01*
X0237625Y0220525D01*
X0237725Y0220475D01*
X0237800Y0220400D01*
X0237875Y0220350D01*
X0237975Y0220300D01*
X0238050Y0220225D01*
X0238125Y0220175D01*
X0238325Y0219975D01*
X0238375Y0219900D01*
X0238450Y0219850D01*
X0238525Y0219775D01*
X0238625Y0219625D01*
X0238700Y0219550D01*
X0238800Y0219400D01*
X0238875Y0219325D01*
X0238925Y0219250D01*
X0238975Y0219150D01*
X0239075Y0219000D01*
X0239100Y0218900D01*
X0239150Y0218825D01*
X0239200Y0218725D01*
X0239225Y0218650D01*
X0239275Y0218550D01*
X0239300Y0218475D01*
X0239325Y0218425D01*
X0239325Y0213300D01*
X0239300Y0213200D01*
X0239250Y0213125D01*
X0239225Y0213025D01*
X0239175Y0212950D01*
X0239125Y0212850D01*
X0239100Y0212775D01*
X0239050Y0212675D01*
X0238950Y0212525D01*
X0238900Y0212425D01*
X0238850Y0212350D01*
X0238775Y0212275D01*
X0238675Y0212125D01*
X0238600Y0212050D01*
X0238550Y0211975D01*
X0238400Y0211825D01*
X0238350Y0211750D01*
X0238275Y0211675D01*
X0238200Y0211625D01*
X0238125Y0211550D01*
X0238050Y0211500D01*
X0237975Y0211425D01*
X0237825Y0211325D01*
X0237750Y0211250D01*
X0237650Y0211200D01*
X0237500Y0211100D01*
X0237425Y0211075D01*
X0237325Y0211025D01*
X0237250Y0210975D01*
X0237150Y0210925D01*
X0237075Y0210900D01*
X0236975Y0210850D01*
X0236900Y0210825D01*
X0236800Y0210800D01*
X0236700Y0210750D01*
X0236625Y0210725D01*
X0236425Y0210675D01*
X0236350Y0210650D01*
X0236050Y0210575D01*
X0235975Y0210575D01*
X0235875Y0210550D01*
X0235775Y0210550D01*
X0235675Y0210525D01*
X0235575Y0210525D01*
X0235475Y0210500D01*
X0233875Y0210500D01*
X0233875Y0213400D01*
X0233925Y0213400D01*
X0234075Y0213350D01*
X0234175Y0213325D01*
X0234225Y0213325D01*
X0234275Y0213300D01*
X0234575Y0213375D01*
X0234650Y0213400D01*
X0234850Y0213450D01*
X0234950Y0213500D01*
X0235025Y0213525D01*
X0235125Y0213575D01*
X0235225Y0213600D01*
X0235300Y0213650D01*
X0235400Y0213700D01*
X0235550Y0213800D01*
X0235650Y0213875D01*
X0235725Y0213925D01*
X0235800Y0214000D01*
X0235875Y0214050D01*
X0236025Y0214200D01*
X0236075Y0214275D01*
X0236150Y0214350D01*
X0236200Y0214425D01*
X0236275Y0214500D01*
X0236325Y0214575D01*
X0236375Y0214675D01*
X0236425Y0214750D01*
X0236475Y0214850D01*
X0236525Y0214925D01*
X0236575Y0215025D01*
X0236600Y0215100D01*
X0236650Y0215200D01*
X0236700Y0215400D01*
X0236725Y0215475D01*
X0236800Y0215775D01*
X0236825Y0215850D01*
X0236800Y0215900D01*
X0236800Y0215950D01*
X0236700Y0216350D01*
X0236675Y0216425D01*
X0236625Y0216525D01*
X0236600Y0216625D01*
X0236550Y0216700D01*
X0236500Y0216800D01*
X0236475Y0216875D01*
X0236425Y0216975D01*
X0236325Y0217125D01*
X0236250Y0217225D01*
X0236200Y0217300D01*
X0236125Y0217375D01*
X0236075Y0217450D01*
X0235800Y0217725D01*
X0235725Y0217775D01*
X0235625Y0217850D01*
X0235400Y0218000D01*
X0235300Y0218050D01*
X0235225Y0218100D01*
X0235125Y0218125D01*
X0235050Y0218175D01*
X0234975Y0218200D01*
X0234875Y0218250D01*
X0234800Y0218275D01*
X0234700Y0218300D01*
X0234625Y0218325D01*
X0234525Y0218350D01*
X0234450Y0218375D01*
X0234350Y0218400D01*
X0234275Y0218400D01*
X0234200Y0218375D01*
X0234100Y0218375D01*
X0234025Y0218350D01*
X0233925Y0218325D01*
X0233875Y0218300D01*
X0233875Y0221225D01*
X0233875Y0218300D01*
X0233850Y0218300D01*
X0233750Y0218275D01*
X0233650Y0218225D01*
X0233575Y0218200D01*
X0233475Y0218175D01*
X0233400Y0218125D01*
X0233300Y0218075D01*
X0233225Y0218025D01*
X0233125Y0217975D01*
X0232825Y0217775D01*
X0232750Y0217700D01*
X0232675Y0217650D01*
X0232525Y0217500D01*
X0232475Y0217425D01*
X0232400Y0217350D01*
X0232300Y0217200D01*
X0232225Y0217125D01*
X0232175Y0217050D01*
X0232125Y0216950D01*
X0232075Y0216875D01*
X0232050Y0216775D01*
X0232000Y0216700D01*
X0231950Y0216600D01*
X0231925Y0216525D01*
X0231900Y0216425D01*
X0231850Y0216325D01*
X0231825Y0216250D01*
X0231750Y0215950D01*
X0231750Y0215775D01*
X0231775Y0215700D01*
X0231825Y0215500D01*
X0231850Y0215425D01*
X0231900Y0215225D01*
X0231950Y0215125D01*
X0231975Y0215050D01*
X0232025Y0214950D01*
X0232075Y0214875D01*
X0232125Y0214775D01*
X0232225Y0214625D01*
X0232275Y0214525D01*
X0232325Y0214450D01*
X0232400Y0214375D01*
X0232450Y0214300D01*
X0232600Y0214150D01*
X0232650Y0214075D01*
X0232725Y0214025D01*
X0232800Y0213950D01*
X0232875Y0213900D01*
X0232975Y0213850D01*
X0233050Y0213775D01*
X0233200Y0213675D01*
X0233300Y0213625D01*
X0233375Y0213600D01*
X0233475Y0213550D01*
X0233575Y0213525D01*
X0233650Y0213475D01*
X0233750Y0213450D01*
X0233825Y0213425D01*
X0233875Y0213400D01*
X0233875Y0210500D01*
X0233050Y0210500D01*
X0232950Y0210525D01*
X0232850Y0210525D01*
X0232750Y0210550D01*
X0232650Y0210550D01*
X0232575Y0210575D01*
X0232475Y0210600D01*
X0232375Y0210600D01*
X0232075Y0210675D01*
X0232000Y0210700D01*
X0231900Y0210750D01*
X0231700Y0210800D01*
X0231625Y0210850D01*
X0231525Y0210875D01*
X0231425Y0210925D01*
X0231350Y0210950D01*
X0231250Y0211000D01*
X0231175Y0211050D01*
X0231075Y0211100D01*
X0230925Y0211200D01*
X0230825Y0211250D01*
X0230750Y0211300D01*
X0230675Y0211375D01*
X0230525Y0211475D01*
X0230450Y0211550D01*
X0230375Y0211600D01*
X0229950Y0212025D01*
X0229900Y0212100D01*
X0229825Y0212175D01*
X0229775Y0212275D01*
X0229625Y0212500D01*
X0229575Y0212600D01*
X0229525Y0212675D01*
X0229475Y0212775D01*
X0229375Y0212925D01*
X0229350Y0213025D01*
X0229300Y0213125D01*
X0229275Y0213200D01*
X0229225Y0213300D01*
X0229200Y0213400D01*
X0229175Y0213475D01*
X0229125Y0213675D01*
X0229075Y0213750D01*
X0229075Y0213850D01*
X0229000Y0214150D01*
X0229000Y0214250D01*
X0228975Y0214325D01*
X0228950Y0214425D01*
X0228950Y0214625D01*
X0228925Y0214725D01*
X0228925Y0215075D01*
X0228850Y0215050D01*
X0228800Y0215000D01*
X0228575Y0214850D01*
X0228475Y0214800D01*
X0228325Y0214700D01*
X0228225Y0214650D01*
X0228075Y0214550D01*
X0227975Y0214500D01*
X0227900Y0214450D01*
X0227825Y0214425D01*
X0227725Y0214375D01*
X0227650Y0214325D01*
X0227550Y0214300D01*
X0227475Y0214250D01*
X0227375Y0214200D01*
X0227300Y0214175D01*
X0227200Y0214125D01*
X0227100Y0214100D01*
X0227025Y0214075D01*
X0226925Y0214025D01*
X0226825Y0214000D01*
X0226750Y0213975D01*
X0226650Y0213950D01*
X0226550Y0213900D01*
X0226250Y0213825D01*
X0226175Y0213800D01*
X0226075Y0213800D01*
X0225775Y0213725D01*
X0225675Y0213725D01*
X0225575Y0213700D01*
X0225475Y0213700D01*
X0225375Y0213675D01*
X0225175Y0213675D01*
X0225075Y0213650D01*
X0222250Y0213650D01*
X0222150Y0213675D01*
X0221575Y0213675D01*
X0221475Y0213700D01*
X0221000Y0213700D01*
X0220900Y0213725D01*
X0220300Y0213725D01*
X0220225Y0213750D01*
X0219625Y0213750D01*
X0219525Y0213775D01*
X0218950Y0213775D01*
X0218850Y0213800D01*
X0218450Y0213800D01*
X0218350Y0213825D01*
X0217950Y0213825D01*
X0217850Y0213850D01*
X0217650Y0213850D01*
X0217550Y0213875D01*
X0217175Y0213875D01*
X0217075Y0213900D01*
X0216575Y0213900D01*
X0216475Y0213925D01*
X0215125Y0213925D01*
X0215050Y0213900D01*
X0214850Y0213900D01*
X0214775Y0213875D01*
X0214675Y0213875D01*
X0214600Y0213850D01*
X0214500Y0213850D01*
X0214400Y0213825D01*
X0214325Y0213825D01*
X0214125Y0213775D01*
X0214050Y0213750D01*
X0213950Y0213750D01*
X0213850Y0213725D01*
X0213700Y0213675D01*
X0213625Y0213675D01*
X0213575Y0213650D01*
X0211825Y0213650D01*
X0211600Y0213725D01*
X0211550Y0213775D01*
X0211525Y0213850D01*
X0211500Y0213900D01*
X0211500Y0215475D01*
X0211500Y0215361D02*
X0231866Y0215361D01*
X0231750Y0215860D02*
X0211685Y0215860D01*
X0212183Y0216358D02*
X0231867Y0216358D01*
X0232070Y0216857D02*
X0212826Y0216857D01*
X0213483Y0217355D02*
X0232405Y0217355D01*
X0232943Y0217854D02*
X0226435Y0217854D01*
X0226689Y0218352D02*
X0233875Y0218352D01*
X0234032Y0218352D01*
X0234518Y0218352D02*
X0239325Y0218352D01*
X0239356Y0218352D01*
X0239350Y0218375D02*
X0239375Y0218275D01*
X0239400Y0218200D01*
X0239475Y0217900D01*
X0239500Y0217825D01*
X0239550Y0217625D01*
X0239550Y0217525D01*
X0239575Y0217425D01*
X0239575Y0217350D01*
X0239600Y0217250D01*
X0239600Y0217150D01*
X0239625Y0217050D01*
X0239625Y0214650D01*
X0239600Y0214575D01*
X0239600Y0214400D01*
X0239575Y0214300D01*
X0239575Y0214225D01*
X0239550Y0214125D01*
X0239525Y0214050D01*
X0239525Y0213950D01*
X0239500Y0213850D01*
X0239475Y0213775D01*
X0239400Y0213475D01*
X0239350Y0213400D01*
X0239325Y0213300D01*
X0239325Y0218425D01*
X0239350Y0218375D01*
X0239325Y0217854D02*
X0235619Y0217854D01*
X0236145Y0217355D02*
X0239325Y0217355D01*
X0239575Y0217355D01*
X0239625Y0216857D02*
X0239325Y0216857D01*
X0236481Y0216857D01*
X0236697Y0216358D02*
X0239325Y0216358D01*
X0239625Y0216358D01*
X0239625Y0215860D02*
X0239325Y0215860D01*
X0236820Y0215860D01*
X0236690Y0215361D02*
X0239325Y0215361D01*
X0239625Y0215361D01*
X0239625Y0214863D02*
X0239325Y0214863D01*
X0236484Y0214863D01*
X0236160Y0214364D02*
X0239325Y0214364D01*
X0239591Y0214364D01*
X0239504Y0213866D02*
X0239325Y0213866D01*
X0235638Y0213866D01*
X0234544Y0213367D02*
X0239325Y0213367D01*
X0239342Y0213367D01*
X0239134Y0212869D02*
X0233875Y0212869D01*
X0229412Y0212869D01*
X0229208Y0213367D02*
X0233875Y0213367D01*
X0234023Y0213367D01*
X0233875Y0212370D02*
X0238864Y0212370D01*
X0238447Y0211872D02*
X0233875Y0211872D01*
X0230103Y0211872D01*
X0229711Y0212370D02*
X0233875Y0212370D01*
X0233875Y0211373D02*
X0237897Y0211373D01*
X0237025Y0210875D02*
X0233875Y0210875D01*
X0231526Y0210875D01*
X0230677Y0211373D02*
X0233875Y0211373D01*
X0232943Y0213866D02*
X0229071Y0213866D01*
X0228965Y0214364D02*
X0232407Y0214364D01*
X0232081Y0214863D02*
X0228925Y0214863D01*
X0228594Y0214863D02*
X0211500Y0214863D01*
X0211500Y0214364D02*
X0227709Y0214364D01*
X0226413Y0213866D02*
X0217587Y0213866D01*
X0214647Y0213866D02*
X0211517Y0213866D01*
X0214143Y0217854D02*
X0219818Y0217854D01*
X0220452Y0218352D02*
X0214777Y0218352D01*
X0215426Y0218851D02*
X0221051Y0218851D01*
X0221649Y0219349D02*
X0216049Y0219349D01*
X0216648Y0219848D02*
X0222259Y0219848D01*
X0222857Y0220346D02*
X0217271Y0220346D01*
X0217895Y0220845D02*
X0223445Y0220845D01*
X0224018Y0221343D02*
X0218490Y0221343D01*
X0219088Y0221842D02*
X0224617Y0221842D01*
X0225108Y0221842D02*
X0227718Y0221842D01*
X0228516Y0222341D02*
X0218000Y0222341D01*
X0218000Y0222839D02*
X0228913Y0222839D01*
X0228975Y0223338D02*
X0218000Y0223338D01*
X0218000Y0223836D02*
X0228975Y0223836D01*
X0228975Y0224335D02*
X0218165Y0224335D01*
X0218700Y0224833D02*
X0228911Y0224833D01*
X0228482Y0225332D02*
X0223088Y0225332D01*
X0223612Y0225830D02*
X0228980Y0225830D01*
X0229504Y0226329D02*
X0224152Y0226329D01*
X0224628Y0226827D02*
X0230002Y0226827D01*
X0230476Y0227326D02*
X0225151Y0227326D01*
X0225661Y0227824D02*
X0230961Y0227824D01*
X0231440Y0228323D02*
X0221509Y0228323D01*
X0221293Y0228323D02*
X0215682Y0228323D01*
X0215412Y0227824D02*
X0220416Y0227824D01*
X0220238Y0227326D02*
X0215275Y0227326D01*
X0215275Y0226827D02*
X0219902Y0226827D01*
X0219329Y0226329D02*
X0215275Y0226329D01*
X0215275Y0225830D02*
X0218460Y0225830D01*
X0216047Y0228821D02*
X0231914Y0228821D01*
X0232370Y0229320D02*
X0216495Y0229320D01*
X0217027Y0229818D02*
X0232795Y0229818D01*
X0233075Y0230317D02*
X0217667Y0230317D01*
X0218435Y0230815D02*
X0233075Y0230815D01*
X0233075Y0231314D02*
X0219446Y0231314D01*
X0220849Y0231812D02*
X0233075Y0231812D01*
X0233875Y0220845D02*
X0229065Y0220845D01*
X0228120Y0220346D02*
X0233875Y0220346D01*
X0237882Y0220346D01*
X0238452Y0219848D02*
X0233875Y0219848D01*
X0227473Y0219848D01*
X0227081Y0219349D02*
X0233875Y0219349D01*
X0238851Y0219349D01*
X0239133Y0218851D02*
X0233875Y0218851D01*
X0226894Y0218851D01*
X0233875Y0220845D02*
X0237033Y0220845D01*
X0239325Y0217854D02*
X0239490Y0217854D01*
D23*
X0026750Y0165650D02*
X0021750Y0165650D01*
X0021750Y0149850D02*
X0026750Y0149850D01*
D24*
X0027550Y0157750D02*
X0020950Y0157750D01*
D25*
X0019821Y0173900D02*
X0028679Y0173900D01*
X0028679Y0141600D02*
X0019821Y0141600D01*
M02*
