G75*
%MOIN*%
%OFA0B0*%
%FSLAX25Y25*%
%IPPOS*%
%LPD*%
%AMOC8*
5,1,8,0,0,1.08239X$1,22.5*
%
%ADD10C,0.00000*%
D10*
X0001750Y0001500D02*
X0390500Y0001500D01*
X0390500Y0239000D01*
X0001750Y0239000D01*
X0001750Y0001500D01*
X0217951Y0137750D02*
X0217953Y0137908D01*
X0217959Y0138066D01*
X0217969Y0138224D01*
X0217983Y0138382D01*
X0218001Y0138539D01*
X0218022Y0138696D01*
X0218048Y0138852D01*
X0218078Y0139008D01*
X0218111Y0139163D01*
X0218149Y0139316D01*
X0218190Y0139469D01*
X0218235Y0139621D01*
X0218284Y0139772D01*
X0218337Y0139921D01*
X0218393Y0140069D01*
X0218453Y0140215D01*
X0218517Y0140360D01*
X0218585Y0140503D01*
X0218656Y0140645D01*
X0218730Y0140785D01*
X0218808Y0140922D01*
X0218890Y0141058D01*
X0218974Y0141192D01*
X0219063Y0141323D01*
X0219154Y0141452D01*
X0219249Y0141579D01*
X0219346Y0141704D01*
X0219447Y0141826D01*
X0219551Y0141945D01*
X0219658Y0142062D01*
X0219768Y0142176D01*
X0219881Y0142287D01*
X0219996Y0142396D01*
X0220114Y0142501D01*
X0220235Y0142603D01*
X0220358Y0142703D01*
X0220484Y0142799D01*
X0220612Y0142892D01*
X0220742Y0142982D01*
X0220875Y0143068D01*
X0221010Y0143152D01*
X0221146Y0143231D01*
X0221285Y0143308D01*
X0221426Y0143380D01*
X0221568Y0143450D01*
X0221712Y0143515D01*
X0221858Y0143577D01*
X0222005Y0143635D01*
X0222154Y0143690D01*
X0222304Y0143741D01*
X0222455Y0143788D01*
X0222607Y0143831D01*
X0222760Y0143870D01*
X0222915Y0143906D01*
X0223070Y0143937D01*
X0223226Y0143965D01*
X0223382Y0143989D01*
X0223539Y0144009D01*
X0223697Y0144025D01*
X0223854Y0144037D01*
X0224013Y0144045D01*
X0224171Y0144049D01*
X0224329Y0144049D01*
X0224487Y0144045D01*
X0224646Y0144037D01*
X0224803Y0144025D01*
X0224961Y0144009D01*
X0225118Y0143989D01*
X0225274Y0143965D01*
X0225430Y0143937D01*
X0225585Y0143906D01*
X0225740Y0143870D01*
X0225893Y0143831D01*
X0226045Y0143788D01*
X0226196Y0143741D01*
X0226346Y0143690D01*
X0226495Y0143635D01*
X0226642Y0143577D01*
X0226788Y0143515D01*
X0226932Y0143450D01*
X0227074Y0143380D01*
X0227215Y0143308D01*
X0227354Y0143231D01*
X0227490Y0143152D01*
X0227625Y0143068D01*
X0227758Y0142982D01*
X0227888Y0142892D01*
X0228016Y0142799D01*
X0228142Y0142703D01*
X0228265Y0142603D01*
X0228386Y0142501D01*
X0228504Y0142396D01*
X0228619Y0142287D01*
X0228732Y0142176D01*
X0228842Y0142062D01*
X0228949Y0141945D01*
X0229053Y0141826D01*
X0229154Y0141704D01*
X0229251Y0141579D01*
X0229346Y0141452D01*
X0229437Y0141323D01*
X0229526Y0141192D01*
X0229610Y0141058D01*
X0229692Y0140922D01*
X0229770Y0140785D01*
X0229844Y0140645D01*
X0229915Y0140503D01*
X0229983Y0140360D01*
X0230047Y0140215D01*
X0230107Y0140069D01*
X0230163Y0139921D01*
X0230216Y0139772D01*
X0230265Y0139621D01*
X0230310Y0139469D01*
X0230351Y0139316D01*
X0230389Y0139163D01*
X0230422Y0139008D01*
X0230452Y0138852D01*
X0230478Y0138696D01*
X0230499Y0138539D01*
X0230517Y0138382D01*
X0230531Y0138224D01*
X0230541Y0138066D01*
X0230547Y0137908D01*
X0230549Y0137750D01*
X0230547Y0137592D01*
X0230541Y0137434D01*
X0230531Y0137276D01*
X0230517Y0137118D01*
X0230499Y0136961D01*
X0230478Y0136804D01*
X0230452Y0136648D01*
X0230422Y0136492D01*
X0230389Y0136337D01*
X0230351Y0136184D01*
X0230310Y0136031D01*
X0230265Y0135879D01*
X0230216Y0135728D01*
X0230163Y0135579D01*
X0230107Y0135431D01*
X0230047Y0135285D01*
X0229983Y0135140D01*
X0229915Y0134997D01*
X0229844Y0134855D01*
X0229770Y0134715D01*
X0229692Y0134578D01*
X0229610Y0134442D01*
X0229526Y0134308D01*
X0229437Y0134177D01*
X0229346Y0134048D01*
X0229251Y0133921D01*
X0229154Y0133796D01*
X0229053Y0133674D01*
X0228949Y0133555D01*
X0228842Y0133438D01*
X0228732Y0133324D01*
X0228619Y0133213D01*
X0228504Y0133104D01*
X0228386Y0132999D01*
X0228265Y0132897D01*
X0228142Y0132797D01*
X0228016Y0132701D01*
X0227888Y0132608D01*
X0227758Y0132518D01*
X0227625Y0132432D01*
X0227490Y0132348D01*
X0227354Y0132269D01*
X0227215Y0132192D01*
X0227074Y0132120D01*
X0226932Y0132050D01*
X0226788Y0131985D01*
X0226642Y0131923D01*
X0226495Y0131865D01*
X0226346Y0131810D01*
X0226196Y0131759D01*
X0226045Y0131712D01*
X0225893Y0131669D01*
X0225740Y0131630D01*
X0225585Y0131594D01*
X0225430Y0131563D01*
X0225274Y0131535D01*
X0225118Y0131511D01*
X0224961Y0131491D01*
X0224803Y0131475D01*
X0224646Y0131463D01*
X0224487Y0131455D01*
X0224329Y0131451D01*
X0224171Y0131451D01*
X0224013Y0131455D01*
X0223854Y0131463D01*
X0223697Y0131475D01*
X0223539Y0131491D01*
X0223382Y0131511D01*
X0223226Y0131535D01*
X0223070Y0131563D01*
X0222915Y0131594D01*
X0222760Y0131630D01*
X0222607Y0131669D01*
X0222455Y0131712D01*
X0222304Y0131759D01*
X0222154Y0131810D01*
X0222005Y0131865D01*
X0221858Y0131923D01*
X0221712Y0131985D01*
X0221568Y0132050D01*
X0221426Y0132120D01*
X0221285Y0132192D01*
X0221146Y0132269D01*
X0221010Y0132348D01*
X0220875Y0132432D01*
X0220742Y0132518D01*
X0220612Y0132608D01*
X0220484Y0132701D01*
X0220358Y0132797D01*
X0220235Y0132897D01*
X0220114Y0132999D01*
X0219996Y0133104D01*
X0219881Y0133213D01*
X0219768Y0133324D01*
X0219658Y0133438D01*
X0219551Y0133555D01*
X0219447Y0133674D01*
X0219346Y0133796D01*
X0219249Y0133921D01*
X0219154Y0134048D01*
X0219063Y0134177D01*
X0218974Y0134308D01*
X0218890Y0134442D01*
X0218808Y0134578D01*
X0218730Y0134715D01*
X0218656Y0134855D01*
X0218585Y0134997D01*
X0218517Y0135140D01*
X0218453Y0135285D01*
X0218393Y0135431D01*
X0218337Y0135579D01*
X0218284Y0135728D01*
X0218235Y0135879D01*
X0218190Y0136031D01*
X0218149Y0136184D01*
X0218111Y0136337D01*
X0218078Y0136492D01*
X0218048Y0136648D01*
X0218022Y0136804D01*
X0218001Y0136961D01*
X0217983Y0137118D01*
X0217969Y0137276D01*
X0217959Y0137434D01*
X0217953Y0137592D01*
X0217951Y0137750D01*
X0217951Y0177750D02*
X0217953Y0177908D01*
X0217959Y0178066D01*
X0217969Y0178224D01*
X0217983Y0178382D01*
X0218001Y0178539D01*
X0218022Y0178696D01*
X0218048Y0178852D01*
X0218078Y0179008D01*
X0218111Y0179163D01*
X0218149Y0179316D01*
X0218190Y0179469D01*
X0218235Y0179621D01*
X0218284Y0179772D01*
X0218337Y0179921D01*
X0218393Y0180069D01*
X0218453Y0180215D01*
X0218517Y0180360D01*
X0218585Y0180503D01*
X0218656Y0180645D01*
X0218730Y0180785D01*
X0218808Y0180922D01*
X0218890Y0181058D01*
X0218974Y0181192D01*
X0219063Y0181323D01*
X0219154Y0181452D01*
X0219249Y0181579D01*
X0219346Y0181704D01*
X0219447Y0181826D01*
X0219551Y0181945D01*
X0219658Y0182062D01*
X0219768Y0182176D01*
X0219881Y0182287D01*
X0219996Y0182396D01*
X0220114Y0182501D01*
X0220235Y0182603D01*
X0220358Y0182703D01*
X0220484Y0182799D01*
X0220612Y0182892D01*
X0220742Y0182982D01*
X0220875Y0183068D01*
X0221010Y0183152D01*
X0221146Y0183231D01*
X0221285Y0183308D01*
X0221426Y0183380D01*
X0221568Y0183450D01*
X0221712Y0183515D01*
X0221858Y0183577D01*
X0222005Y0183635D01*
X0222154Y0183690D01*
X0222304Y0183741D01*
X0222455Y0183788D01*
X0222607Y0183831D01*
X0222760Y0183870D01*
X0222915Y0183906D01*
X0223070Y0183937D01*
X0223226Y0183965D01*
X0223382Y0183989D01*
X0223539Y0184009D01*
X0223697Y0184025D01*
X0223854Y0184037D01*
X0224013Y0184045D01*
X0224171Y0184049D01*
X0224329Y0184049D01*
X0224487Y0184045D01*
X0224646Y0184037D01*
X0224803Y0184025D01*
X0224961Y0184009D01*
X0225118Y0183989D01*
X0225274Y0183965D01*
X0225430Y0183937D01*
X0225585Y0183906D01*
X0225740Y0183870D01*
X0225893Y0183831D01*
X0226045Y0183788D01*
X0226196Y0183741D01*
X0226346Y0183690D01*
X0226495Y0183635D01*
X0226642Y0183577D01*
X0226788Y0183515D01*
X0226932Y0183450D01*
X0227074Y0183380D01*
X0227215Y0183308D01*
X0227354Y0183231D01*
X0227490Y0183152D01*
X0227625Y0183068D01*
X0227758Y0182982D01*
X0227888Y0182892D01*
X0228016Y0182799D01*
X0228142Y0182703D01*
X0228265Y0182603D01*
X0228386Y0182501D01*
X0228504Y0182396D01*
X0228619Y0182287D01*
X0228732Y0182176D01*
X0228842Y0182062D01*
X0228949Y0181945D01*
X0229053Y0181826D01*
X0229154Y0181704D01*
X0229251Y0181579D01*
X0229346Y0181452D01*
X0229437Y0181323D01*
X0229526Y0181192D01*
X0229610Y0181058D01*
X0229692Y0180922D01*
X0229770Y0180785D01*
X0229844Y0180645D01*
X0229915Y0180503D01*
X0229983Y0180360D01*
X0230047Y0180215D01*
X0230107Y0180069D01*
X0230163Y0179921D01*
X0230216Y0179772D01*
X0230265Y0179621D01*
X0230310Y0179469D01*
X0230351Y0179316D01*
X0230389Y0179163D01*
X0230422Y0179008D01*
X0230452Y0178852D01*
X0230478Y0178696D01*
X0230499Y0178539D01*
X0230517Y0178382D01*
X0230531Y0178224D01*
X0230541Y0178066D01*
X0230547Y0177908D01*
X0230549Y0177750D01*
X0230547Y0177592D01*
X0230541Y0177434D01*
X0230531Y0177276D01*
X0230517Y0177118D01*
X0230499Y0176961D01*
X0230478Y0176804D01*
X0230452Y0176648D01*
X0230422Y0176492D01*
X0230389Y0176337D01*
X0230351Y0176184D01*
X0230310Y0176031D01*
X0230265Y0175879D01*
X0230216Y0175728D01*
X0230163Y0175579D01*
X0230107Y0175431D01*
X0230047Y0175285D01*
X0229983Y0175140D01*
X0229915Y0174997D01*
X0229844Y0174855D01*
X0229770Y0174715D01*
X0229692Y0174578D01*
X0229610Y0174442D01*
X0229526Y0174308D01*
X0229437Y0174177D01*
X0229346Y0174048D01*
X0229251Y0173921D01*
X0229154Y0173796D01*
X0229053Y0173674D01*
X0228949Y0173555D01*
X0228842Y0173438D01*
X0228732Y0173324D01*
X0228619Y0173213D01*
X0228504Y0173104D01*
X0228386Y0172999D01*
X0228265Y0172897D01*
X0228142Y0172797D01*
X0228016Y0172701D01*
X0227888Y0172608D01*
X0227758Y0172518D01*
X0227625Y0172432D01*
X0227490Y0172348D01*
X0227354Y0172269D01*
X0227215Y0172192D01*
X0227074Y0172120D01*
X0226932Y0172050D01*
X0226788Y0171985D01*
X0226642Y0171923D01*
X0226495Y0171865D01*
X0226346Y0171810D01*
X0226196Y0171759D01*
X0226045Y0171712D01*
X0225893Y0171669D01*
X0225740Y0171630D01*
X0225585Y0171594D01*
X0225430Y0171563D01*
X0225274Y0171535D01*
X0225118Y0171511D01*
X0224961Y0171491D01*
X0224803Y0171475D01*
X0224646Y0171463D01*
X0224487Y0171455D01*
X0224329Y0171451D01*
X0224171Y0171451D01*
X0224013Y0171455D01*
X0223854Y0171463D01*
X0223697Y0171475D01*
X0223539Y0171491D01*
X0223382Y0171511D01*
X0223226Y0171535D01*
X0223070Y0171563D01*
X0222915Y0171594D01*
X0222760Y0171630D01*
X0222607Y0171669D01*
X0222455Y0171712D01*
X0222304Y0171759D01*
X0222154Y0171810D01*
X0222005Y0171865D01*
X0221858Y0171923D01*
X0221712Y0171985D01*
X0221568Y0172050D01*
X0221426Y0172120D01*
X0221285Y0172192D01*
X0221146Y0172269D01*
X0221010Y0172348D01*
X0220875Y0172432D01*
X0220742Y0172518D01*
X0220612Y0172608D01*
X0220484Y0172701D01*
X0220358Y0172797D01*
X0220235Y0172897D01*
X0220114Y0172999D01*
X0219996Y0173104D01*
X0219881Y0173213D01*
X0219768Y0173324D01*
X0219658Y0173438D01*
X0219551Y0173555D01*
X0219447Y0173674D01*
X0219346Y0173796D01*
X0219249Y0173921D01*
X0219154Y0174048D01*
X0219063Y0174177D01*
X0218974Y0174308D01*
X0218890Y0174442D01*
X0218808Y0174578D01*
X0218730Y0174715D01*
X0218656Y0174855D01*
X0218585Y0174997D01*
X0218517Y0175140D01*
X0218453Y0175285D01*
X0218393Y0175431D01*
X0218337Y0175579D01*
X0218284Y0175728D01*
X0218235Y0175879D01*
X0218190Y0176031D01*
X0218149Y0176184D01*
X0218111Y0176337D01*
X0218078Y0176492D01*
X0218048Y0176648D01*
X0218022Y0176804D01*
X0218001Y0176961D01*
X0217983Y0177118D01*
X0217969Y0177276D01*
X0217959Y0177434D01*
X0217953Y0177592D01*
X0217951Y0177750D01*
M02*
